<svg width="153" height="34" viewBox="0 0 153 34" fill="none" xmlns="http://www.w3.org/2000/svg">
<path d="M33.6136 7.39795L36.975 0.425293H20.5043L10.5702 22.6714L14.9186 32.3003L19.6654 21.3433H27.227L30.5884 14.0386H23.056L25.9556 7.39795H33.6136Z" fill="white"/>
<path d="M0 0.425293L8.47648 18.355L16.8068 0.425293H0Z" fill="white"/>
<path d="M44.625 33.5753V0.425293H65.249V6.55917H50.9997V13.5951H62.4366V19.729H50.9997V33.5753H44.625Z" fill="white"/>
<path d="M67.6054 33.5753V0.425293H73.9801V33.5753H67.6054Z" fill="white"/>
<path d="M90.0526 33.5753C87.5059 33.5753 85.2716 33.0266 83.3498 31.9291C81.4281 30.8316 79.9281 29.3207 78.8501 27.3963C77.7876 25.4569 77.2564 23.2319 77.2564 20.7212C77.2564 18.1805 77.8033 15.9479 78.8969 14.0236C79.9906 12.0842 81.4984 10.5733 83.4202 9.4908C85.3419 8.40836 87.5528 7.86713 90.0526 7.86713C92.5994 7.86713 94.8336 8.41587 96.7554 9.51335C98.6928 10.6108 100.201 12.1293 101.279 14.0687C102.357 15.993 102.896 18.2105 102.896 20.7212C102.896 23.2469 102.349 25.4795 101.255 27.4189C100.177 29.3432 98.6694 30.8541 96.732 31.9516C94.8102 33.0341 92.5838 33.5753 90.0526 33.5753ZM90.0526 27.8473C92.0994 27.8473 93.6228 27.1858 94.6227 25.8629C95.6383 24.5248 96.1461 22.8109 96.1461 20.7212C96.1461 18.5563 95.6305 16.8274 94.5993 15.5345C93.5837 14.2416 92.0682 13.5951 90.0526 13.5951C88.6621 13.5951 87.5215 13.8958 86.6309 14.4971C85.7403 15.0985 85.0763 15.9329 84.6388 17.0003C84.217 18.0677 84.0061 19.308 84.0061 20.7212C84.0061 22.9011 84.5139 24.6376 85.5294 25.9305C86.5606 27.2084 88.0684 27.8473 90.0526 27.8473Z" fill="white"/>
<path d="M105.706 33.5753V0.425293H112.174V20.2702L120.752 8.54366H128.627L119.486 20.7212L129.048 33.5753H120.752L112.174 21.1722L112.221 33.5753H105.706Z" fill="white"/>
<path d="M140.157 33.5753C137.61 33.5753 135.376 33.0266 133.454 31.9291C131.532 30.8316 130.032 29.3207 128.954 27.3963C127.892 25.4569 127.361 23.2319 127.361 20.7212C127.361 18.1805 127.908 15.9479 129.001 14.0236C130.095 12.0842 131.603 10.5733 133.524 9.4908C135.446 8.40836 137.657 7.86713 140.157 7.86713C142.704 7.86713 144.938 8.41587 146.86 9.51335C148.797 10.6108 150.305 12.1293 151.383 14.0687C152.461 15.993 153 18.2105 153 20.7212C153 23.2469 152.453 25.4795 151.359 27.4189C150.281 29.3432 148.774 30.8541 146.836 31.9516C144.914 33.0341 142.688 33.5753 140.157 33.5753ZM140.157 27.8473C142.204 27.8473 143.727 27.1858 144.727 25.8629C145.743 24.5248 146.25 22.8109 146.25 20.7212C146.25 18.5563 145.735 16.8274 144.704 15.5345C143.688 14.2416 142.172 13.5951 140.157 13.5951C138.766 13.5951 137.626 13.8958 136.735 14.4971C135.845 15.0985 135.181 15.9329 134.743 17.0003C134.321 18.0677 134.11 19.308 134.11 20.7212C134.11 22.9011 134.618 24.6376 135.634 25.9305C136.665 27.2084 138.173 27.8473 140.157 27.8473Z" fill="white"/>
</svg>
